<svg width="18" height="24" viewBox="0 0 18 24" fill="none" xmlns="http://www.w3.org/2000/svg">
<path d="M2.76546 13.0575L2.33722 13.3156L2.34865 13.3346L2.36172 13.3524L2.76546 13.0575ZM2.76548 3.56698L2.37144 3.25919L2.76548 3.56698ZM15.4762 13.0575L15.9147 13.2978L15.9164 13.2945L15.4762 13.0575ZM10.0287 23L9.62492 23.2949L10.0891 23.9303L10.4672 23.2402L10.0287 23ZM13.5 9.49995C13.5 11.7091 11.7091 13.5 9.5 13.5V14.5C12.2614 14.5 14.5 12.2614 14.5 9.49995H13.5ZM9.5 13.5C7.29086 13.5 5.5 11.7091 5.5 9.49995H4.5C4.5 12.2614 6.73858 14.5 9.5 14.5V13.5ZM5.5 9.49995C5.5 7.29081 7.29086 5.49995 9.5 5.49995V4.49995C6.73858 4.49995 4.5 6.73853 4.5 9.49995H5.5ZM9.5 5.49995C11.7091 5.49995 13.5 7.29081 13.5 9.49995H14.5C14.5 6.73853 12.2614 4.49995 9.5 4.49995V5.49995ZM3.19371 12.7994C2.50934 11.6638 1.76909 10.3881 1.55836 8.91923C1.35227 7.48276 1.64794 5.80995 3.15952 3.87476L2.37144 3.25919C0.705887 5.3915 0.32072 7.3342 0.568493 9.06125C0.811617 10.7559 1.65992 12.1917 2.33722 13.3156L3.19371 12.7994ZM3.15952 3.87476C4.62044 2.00443 7.05474 1.21467 9.45562 1.24137C11.8748 1.26827 14.0882 2.12076 15.0927 3.32091L15.8596 2.67906C14.5946 1.16783 12.0413 0.270064 9.46674 0.241434C6.87394 0.212602 4.08765 1.06203 2.37144 3.25919L3.15952 3.87476ZM15.0927 3.32091C17.1678 5.80002 16.7754 9.58988 15.0359 12.8205L15.9164 13.2945C17.7357 9.91575 18.3235 5.62272 15.8596 2.67906L15.0927 3.32091ZM15.0377 12.8172L9.59017 22.7597L10.4672 23.2402L15.9146 13.2978L15.0377 12.8172ZM10.4324 22.705L3.1692 12.7626L2.36172 13.3524L9.62492 23.2949L10.4324 22.705Z" fill="white"/>
</svg>
